<svg width="89" height="20" viewBox="0 0 89 20" fill="none" xmlns="http://www.w3.org/2000/svg">
<g clip-path="url(#clip0_11674_41921)">
<path d="M10.4987 0C4.87731 0 0.302141 4.44578 0.300075 9.91018C0.300075 11.6574 0.768953 13.3624 1.66127 14.8648L0.214355 20L5.62091 18.6221C7.11016 19.4119 8.78738 19.8274 10.4946 19.8284H10.4987C16.1201 19.8284 20.6952 15.3826 20.6973 9.91821C20.6983 7.27081 19.6387 4.77997 17.7126 2.90732C15.7875 1.03367 13.2273 0.00100356 10.4987 0ZM10.4987 18.1544H10.4956C8.97431 18.1544 7.48299 17.757 6.18067 17.0064L5.87084 16.8277L2.66305 17.6456L3.51922 14.6059L3.31783 14.2937C2.46889 12.9821 2.02067 11.4667 2.0217 9.91018C2.02377 5.36806 5.82643 1.67394 10.5018 1.67394C12.7656 1.67394 14.8942 2.53299 16.4949 4.08952C18.0957 5.64604 18.9767 7.71639 18.9757 9.91721C18.9736 14.4593 15.1709 18.1544 10.4987 18.1544ZM15.1482 11.9855C14.8931 11.8621 13.6404 11.263 13.407 11.1797C13.1736 11.0974 13.0032 11.0552 12.8338 11.3031C12.6644 11.551 12.1759 12.109 12.0272 12.2736C11.8785 12.4392 11.7297 12.4592 11.4747 12.3358C11.2196 12.2114 10.3985 11.9504 9.42564 11.1064C8.66758 10.4501 8.15636 9.63922 8.00764 9.39134C7.85892 9.14346 7.99215 9.00999 8.11918 8.88655C8.23382 8.77616 8.37428 8.59752 8.50131 8.45301C8.62834 8.3085 8.67068 8.20513 8.7564 8.03954C8.84109 7.87496 8.79874 7.72944 8.73471 7.606C8.67068 7.48156 8.16152 6.26324 7.94877 5.76748C7.74222 5.28476 7.53153 5.34999 7.37559 5.34196C7.22687 5.33494 7.05749 5.33293 6.88709 5.33293C6.71668 5.33293 6.44093 5.39515 6.20752 5.64303C5.97412 5.89091 5.31521 6.49004 5.31521 7.70836C5.31521 8.92669 6.22818 10.1049 6.35624 10.2705C6.48327 10.435 8.15326 12.9369 10.7094 14.0097C11.3177 14.2646 11.7917 14.4172 12.1625 14.5316C12.7728 14.7203 13.3285 14.6932 13.7674 14.6299C14.2569 14.5587 15.2752 14.0308 15.487 13.4528C15.6997 12.8747 15.6997 12.3789 15.6357 12.2756C15.5717 12.1722 15.4023 12.111 15.1472 11.9866L15.1482 11.9855ZM33.1907 11.834H33.1639L31.4732 5.20548H29.4356L27.717 11.7527H27.6891L26.1224 5.20548H23.9464L26.5655 14.8246H28.7694L30.4188 8.27638H30.4466L32.1239 14.8246H34.2865L36.9479 5.20548H34.8132L33.1907 11.834ZM43.5856 8.45903C43.3914 8.21215 43.126 8.01947 42.7893 7.87997C42.4516 7.74148 42.0199 7.67224 41.4932 7.67224C41.1234 7.67224 40.7444 7.76356 40.3561 7.94822C39.9678 8.13187 39.6497 8.42591 39.3997 8.83035H39.3584V5.20548H37.39V14.8246H39.3584V11.1737C39.3584 10.4641 39.4782 9.95434 39.7189 9.64424C39.9585 9.33514 40.3468 9.17959 40.8828 9.17959C41.3537 9.17959 41.6822 9.32109 41.867 9.60409C42.0519 9.8871 42.1438 10.3156 42.1438 10.8907V14.8246H44.1123V10.5404C44.1123 10.1099 44.073 9.71649 43.9945 9.36123C43.916 9.00698 43.7797 8.70591 43.5856 8.45903ZM51.6938 13.2761V9.65227C51.6938 9.22977 51.5978 8.89056 51.4026 8.63465C51.2095 8.37875 50.9595 8.17904 50.6549 8.03553C50.3492 7.89202 50.0115 7.79467 49.6428 7.7455C49.273 7.69632 48.9085 7.67123 48.548 7.67123C48.1514 7.67123 47.7559 7.70937 47.3634 7.78564C46.9699 7.86191 46.6167 7.99037 46.3028 8.169C45.9888 8.34864 45.7296 8.58648 45.5272 8.88253C45.3237 9.17859 45.208 9.55191 45.1801 10.0005H47.1486C47.1858 9.62316 47.3159 9.3532 47.5369 9.19163C47.759 9.03006 48.0626 8.94977 48.452 8.94977C48.6275 8.94977 48.7907 8.96081 48.9436 8.98289C49.0954 9.00597 49.2296 9.05013 49.3453 9.11737C49.461 9.18461 49.5529 9.27894 49.6221 9.40037C49.6913 9.5218 49.7264 9.68538 49.7264 9.89212C49.7357 10.0898 49.6748 10.2394 49.5467 10.3437C49.4166 10.4471 49.242 10.5264 49.02 10.5796C48.7979 10.6337 48.5439 10.6749 48.2578 10.701C47.9707 10.7281 47.6805 10.7652 47.3851 10.8094C47.0887 10.8545 46.7954 10.9147 46.5052 10.991C46.214 11.0673 45.9547 11.1817 45.7285 11.3342C45.5024 11.4878 45.3175 11.6915 45.174 11.9474C45.0314 12.2033 44.9591 12.5295 44.9591 12.9239C44.9591 13.2832 45.0211 13.5933 45.1461 13.8532C45.271 14.1141 45.4435 14.3289 45.6656 14.5005C45.8876 14.6711 46.1458 14.7975 46.4412 14.8778C46.7365 14.9581 47.0557 14.9992 47.3975 14.9992C47.8406 14.9992 48.2754 14.936 48.6998 14.8106C49.1253 14.6841 49.4951 14.4643 49.809 14.1502C49.8183 14.2666 49.8348 14.3821 49.8576 14.4935C49.8803 14.6048 49.9113 14.7162 49.9474 14.8236H51.9438C51.8518 14.6811 51.7857 14.4654 51.7496 14.1773C51.7124 13.8903 51.6938 13.5902 51.6938 13.2741V13.2761ZM49.7254 12.1311C49.7254 12.2395 49.714 12.383 49.6903 12.5626C49.6675 12.7432 49.6045 12.9199 49.5033 13.0945C49.4011 13.2691 49.2441 13.4206 49.0324 13.5461C48.8196 13.6725 48.5201 13.7348 48.1308 13.7348C47.9738 13.7348 47.8209 13.7217 47.6733 13.6936C47.5256 13.6675 47.3965 13.6193 47.2849 13.5521C47.1744 13.4849 47.0866 13.3925 47.0216 13.2761C46.9575 13.1597 46.9245 13.0162 46.9245 12.8456C46.9245 12.666 46.9575 12.5164 47.0216 12.401C47.0866 12.2846 47.1724 12.1883 47.2787 12.111C47.3841 12.0347 47.509 11.9745 47.6526 11.9283C47.7962 11.8832 47.9407 11.8481 48.0895 11.821C48.2464 11.7949 48.4034 11.7718 48.5604 11.7537C48.7184 11.7367 48.8682 11.7126 49.0107 11.6865C49.1543 11.6594 49.2875 11.6253 49.4135 11.5851C49.5384 11.545 49.6417 11.4888 49.7254 11.4165V12.1301V12.1311ZM55.3664 5.77249H53.3979V7.86091H52.2061V9.14045H53.3979V13.25C53.3979 13.6013 53.4588 13.8833 53.5786 14.0991C53.6984 14.3138 53.8626 14.4814 54.0702 14.5978C54.2778 14.7142 54.5185 14.7925 54.7911 14.8337C55.0627 14.8738 55.3529 14.8939 55.6576 14.8939C55.8528 14.8939 56.0501 14.8889 56.2545 14.8808C56.457 14.8718 56.6418 14.8537 56.8091 14.8266V13.3444C56.7162 13.3624 56.6191 13.3765 56.5179 13.3845C56.4167 13.3935 56.3103 13.3986 56.1988 13.3986C55.8662 13.3986 55.6442 13.3444 55.5337 13.237C55.4232 13.1296 55.3674 12.9138 55.3674 12.5897V9.14045H56.8091V7.86091H55.3674V5.77249H55.3664ZM63.5015 11.7748C63.3724 11.555 63.201 11.3704 62.9892 11.2218C62.7765 11.0743 62.5338 10.9549 62.2622 10.8646C61.9895 10.7753 61.7096 10.7 61.4236 10.6368C61.1468 10.5735 60.8741 10.5153 60.6066 10.4611C60.3392 10.4069 60.1006 10.3467 59.892 10.2795C59.6844 10.2123 59.516 10.1249 59.3869 10.0166C59.2568 9.90918 59.1928 9.76968 59.1928 9.59908C59.1928 9.45557 59.2289 9.34116 59.3033 9.25586C59.3776 9.17056 59.4675 9.10532 59.5739 9.06016C59.6802 9.01601 59.7969 8.9869 59.9271 8.97285C60.0562 8.95981 60.177 8.95379 60.2875 8.95379C60.6387 8.95379 60.9433 9.01902 61.2036 9.14848C61.4618 9.27894 61.6053 9.52782 61.6322 9.89613H63.5036C63.4664 9.4656 63.3538 9.10834 63.1638 8.82433C62.9748 8.54132 62.7362 8.31452 62.4501 8.14491C62.1641 7.97431 61.8377 7.85288 61.4731 7.78162C61.1086 7.70937 60.7316 7.67424 60.3443 7.67424C59.957 7.67424 59.5759 7.70837 59.2083 7.7746C58.8375 7.84184 58.505 7.95926 58.2096 8.12585C57.9132 8.29143 57.6756 8.51824 57.4949 8.80626C57.3142 9.09328 57.2243 9.46259 57.2243 9.91119C57.2243 10.2163 57.2894 10.4752 57.4195 10.6859C57.5476 10.8977 57.72 11.0713 57.9318 11.2108C58.1445 11.3503 58.3872 11.4627 58.6599 11.547C58.9325 11.6333 59.2124 11.7066 59.4974 11.7698C60.2008 11.9133 60.7481 12.0568 61.1406 12.2013C61.533 12.3448 61.7293 12.5606 61.7293 12.8476C61.7293 13.0182 61.688 13.1587 61.6043 13.2711C61.5206 13.3845 61.4174 13.4728 61.2924 13.5411C61.1674 13.6083 61.028 13.6585 60.8762 13.6896C60.7233 13.7217 60.5777 13.7368 60.4393 13.7368C60.2452 13.7368 60.0582 13.7137 59.8785 13.6695C59.6978 13.6244 59.5388 13.5551 59.4004 13.4608C59.262 13.3665 59.1484 13.246 59.0606 13.0975C58.9738 12.949 58.9284 12.7723 58.9284 12.5656H57.057C57.0756 13.0323 57.184 13.4216 57.3834 13.7307C57.5817 14.0408 57.8347 14.2897 58.1455 14.4784C58.4554 14.6671 58.8086 14.8015 59.2062 14.8828C59.6028 14.9631 60.0097 15.0043 60.4249 15.0043C60.84 15.0043 61.2315 14.9661 61.6239 14.8899C62.0164 14.8136 62.3654 14.6811 62.6701 14.4914C62.9758 14.3028 63.2216 14.0539 63.4116 13.7438C63.6006 13.4337 63.6946 13.0493 63.6946 12.5917C63.6946 12.2676 63.6296 11.9966 63.5005 11.7768L63.5015 11.7748ZM67.4105 5.20648L63.6688 14.8256H65.8583L66.6339 12.683H70.3353L71.0831 14.8256H73.3428L69.6423 5.20648H67.4105ZM67.2029 11.1074L68.4918 7.5769H68.5197L69.7673 11.1074H67.2029ZM80.1487 8.80325C79.8812 8.46204 79.5435 8.18807 79.1366 7.98133C78.7297 7.7746 78.2453 7.67123 77.6814 7.67123C77.2374 7.67123 76.8315 7.75654 76.4617 7.92714C76.091 8.09775 75.7873 8.37172 75.5467 8.74906H75.5188V7.8599H73.6474V17.2643H75.6169V13.9636H75.6438C75.8834 14.3048 76.1922 14.5627 76.566 14.7373C76.9399 14.9129 77.3489 15.0003 77.7919 15.0003C78.3186 15.0003 78.7782 14.9009 79.1707 14.7032C79.5631 14.5055 79.8916 14.2406 80.1549 13.9084C80.4183 13.5762 80.6145 13.1948 80.7446 12.7633C80.8727 12.3318 80.9388 11.8832 80.9388 11.4155C80.9388 10.9218 80.8737 10.4481 80.7446 9.99348C80.6145 9.54087 80.4162 9.14246 80.1477 8.80124L80.1487 8.80325ZM78.8877 12.1853C78.8319 12.4552 78.7369 12.6901 78.6027 12.8928C78.4684 13.0955 78.2928 13.2591 78.0749 13.3845C77.858 13.51 77.5875 13.5742 77.2642 13.5742C76.9409 13.5742 76.6827 13.511 76.4607 13.3845C76.2387 13.2591 76.061 13.0955 75.9268 12.8928C75.7925 12.6911 75.6954 12.4552 75.6355 12.1853C75.5756 11.9163 75.5457 11.6413 75.5457 11.3643C75.5457 11.0874 75.5725 10.7973 75.6283 10.5284C75.6841 10.2584 75.7791 10.0206 75.9133 9.81384C76.0466 9.60811 76.2221 9.43951 76.44 9.30905C76.6569 9.17858 76.9265 9.11335 77.2508 9.11335C77.5751 9.11335 77.8312 9.17959 78.0481 9.30905C78.265 9.43851 78.4436 9.60911 78.582 9.82086C78.7204 10.0316 78.8195 10.2725 78.8794 10.5414C78.9404 10.8114 78.9693 11.0854 78.9693 11.3643C78.9693 11.6433 78.9425 11.9163 78.8877 12.1853ZM88.5896 9.99548C88.4605 9.54288 88.2611 9.14446 87.9936 8.80325C87.7262 8.46204 87.3895 8.18807 86.9826 7.98133C86.5757 7.7746 86.0902 7.67123 85.5264 7.67123C85.0833 7.67123 84.6764 7.75654 84.3067 7.92714C83.9369 8.09775 83.6323 8.37172 83.3916 8.74906H83.3648V7.8599H81.4934V17.2643H83.4608V13.9636H83.4887C83.7293 14.3048 84.0371 14.5627 84.411 14.7373C84.7848 14.9129 85.1948 15.0003 85.6379 15.0003C86.1636 15.0003 86.6232 14.9009 87.0166 14.7032C87.4091 14.5055 87.7375 14.2406 87.9998 13.9084C88.2642 13.5762 88.4594 13.1948 88.5885 12.7633C88.7187 12.3318 88.7827 11.8832 88.7827 11.4155C88.7827 10.9218 88.7187 10.4481 88.5885 9.99348L88.5896 9.99548ZM86.7316 12.1853C86.6769 12.4552 86.5818 12.6901 86.4476 12.8928C86.3133 13.0955 86.1378 13.2591 85.9198 13.3845C85.703 13.51 85.4324 13.5742 85.1091 13.5742C84.7859 13.5742 84.5266 13.511 84.3056 13.3845C84.0836 13.2591 83.9059 13.0955 83.7717 12.8928C83.6385 12.6911 83.5414 12.4552 83.4804 12.1853C83.4205 11.9163 83.3906 11.6413 83.3906 11.3643C83.3906 11.0874 83.4185 10.7973 83.4742 10.5284C83.53 10.2584 83.625 10.0206 83.7583 9.81384C83.8925 9.60811 84.0681 9.43951 84.285 9.30905C84.5019 9.17858 84.7714 9.11335 85.0957 9.11335C85.42 9.11335 85.6751 9.17959 85.892 9.30905C86.1099 9.43851 86.2875 9.60911 86.4259 9.82086C86.5653 10.0316 86.6645 10.2725 86.7244 10.5414C86.7853 10.8114 86.8142 11.0854 86.8142 11.3643C86.8142 11.6433 86.7863 11.9163 86.7306 12.1853H86.7316Z" fill="#455A64"/>
</g>
<defs>
<clipPath id="clip0_11674_41921">
<rect width="88.5714" height="20" fill="white" transform="translate(0.214355)"/>
</clipPath>
</defs>
</svg>
